<svg width="53" height="46" viewBox="0 0 53 46" fill="none" xmlns="http://www.w3.org/2000/svg">
<g clip-path="url(#clip0_0_8145)">
<mask id="mask0_0_8145" style="mask-type:luminance" maskUnits="userSpaceOnUse" x="-1" y="0" width="54" height="46">
<path d="M52.9997 0H-0.410156V46H52.9997V0Z" fill="white"/>
</mask>
<g mask="url(#mask0_0_8145)">
<path d="M35.892 10.065C35.5939 8.62063 35.3597 7.17577 35.1414 5.73089L35.062 5.18921L35.0229 4.91809L35.0134 4.85058C35.0101 4.82827 35.0077 4.80322 35.0026 4.78852L34.9767 4.68673C34.9097 4.41777 34.7888 4.16954 34.6248 3.9523C34.4591 3.73563 34.2556 3.54727 34.0207 3.40245C33.786 3.25818 33.5305 3.15093 33.2675 3.09106C33.0044 3.03063 32.7395 3.01048 32.4809 3.03172L31.2925 3.12425L30.0182 3.21899C29.5933 3.25001 29.169 3.2805 28.7441 3.30827C27.0448 3.42479 25.3462 3.52604 23.647 3.61532C22.7978 3.6616 21.9479 3.70134 21.0986 3.74162L20.7798 3.75687L20.6206 3.76395L20.5809 3.76558L20.5617 3.76666L20.554 3.7683L20.5246 3.77428C20.5047 3.77809 20.4856 3.78083 20.4657 3.78299C20.4459 3.78517 20.426 3.78572 20.4082 3.79334C20.3717 3.80532 20.3338 3.81022 20.2975 3.82057C20.1534 3.86084 20.0266 3.93108 19.9141 4.01002C19.8014 4.09004 19.7073 4.18749 19.6388 4.29258C19.571 4.39817 19.5256 4.5076 19.5045 4.61867C19.491 4.67365 19.4923 4.73082 19.4904 4.7869C19.4929 4.80159 19.4943 4.81574 19.4949 4.82991V4.85113V4.86202V4.86746V4.88216L19.507 5.15327L19.548 6.2372C19.6038 7.68261 19.642 9.12857 19.6741 10.574C19.6836 10.9355 19.6874 11.297 19.694 11.6585V11.6753V11.7042L19.692 11.763L19.6874 11.8806L19.6747 12.1152C19.6721 12.1936 19.6592 12.2715 19.6472 12.3493C19.6351 12.4272 19.6217 12.5055 19.6081 12.5834C19.5851 12.7396 19.5345 12.8926 19.491 13.0461C19.4668 13.1224 19.4481 13.2002 19.4162 13.2743C19.3867 13.3488 19.356 13.4239 19.3247 13.498C18.8166 14.6887 17.7847 15.6942 16.4747 16.2909C16.309 16.3622 16.1425 16.4328 15.9717 16.4955C15.7983 16.5532 15.6235 16.6076 15.4482 16.6594C15.2695 16.703 15.0891 16.7432 14.9086 16.7801C14.7276 16.814 14.5432 16.8352 14.3595 16.8587C14.268 16.8718 14.1759 16.8766 14.0837 16.8816L13.8072 16.894C13.5884 16.9032 13.5269 16.899 13.4117 16.9L12.7743 16.9011L10.2246 16.8903C9.37463 16.8816 8.52473 16.8766 7.67483 16.8646L5.31132 16.8293C5.18526 16.8293 5.06365 16.8456 4.94398 16.8825C4.8243 16.919 4.70653 16.9741 4.60286 17.0486C4.49854 17.1227 4.41023 17.2147 4.3411 17.3159C4.27391 17.4183 4.22783 17.531 4.20672 17.6568L4.20095 17.6802L4.19774 17.6921C4.19774 17.6921 4.19647 17.6954 4.19583 17.6993V17.7161L4.18944 17.8517L4.17663 18.1227L4.15039 18.665L4.09726 19.7494C4.05696 20.4725 4.01984 21.1954 3.97247 21.9183C3.9296 22.6414 3.87774 23.3643 3.82784 24.0872C3.77279 24.8103 3.72032 25.5333 3.65823 26.2569C3.6288 26.6183 3.59807 26.9798 3.56481 27.3414L3.48416 28.2603C3.47776 28.4676 3.51744 28.6795 3.60512 28.8853C3.6928 29.0909 3.83039 29.2881 4.00832 29.4639C4.18558 29.6403 4.40702 29.7911 4.6579 29.9077L4.75263 29.9528C4.78525 29.9653 4.81917 29.9756 4.85246 29.9883L4.95358 30.0252C4.98686 30.0399 5.02333 30.0439 5.05789 30.0542L5.16415 30.0819C5.18206 30.0862 5.19996 30.0922 5.2179 30.096L5.27293 30.1048L5.38429 30.1238L5.44062 30.1342C5.45086 30.1359 5.45661 30.1379 5.47133 30.1389L5.511 30.1429C6.36093 30.2175 7.21148 30.298 8.06138 30.3829C9.76183 30.5556 11.4623 30.7427 13.1634 30.9846C11.4655 31.2399 9.76695 31.4401 8.06841 31.6264C7.21914 31.7179 6.36988 31.8049 5.52062 31.8865L5.48094 31.8904C5.46876 31.892 5.44829 31.892 5.4323 31.8932L5.32926 31.8969L5.1219 31.9035L5.01757 31.9057C4.98303 31.9057 4.94846 31.9029 4.9139 31.9012L4.70526 31.8892C4.6355 31.8839 4.5651 31.8834 4.49599 31.8725L4.28799 31.8431C4.21887 31.8328 4.14846 31.8229 4.07935 31.8104L3.87392 31.7635C3.32608 31.6361 2.8013 31.4167 2.3341 31.1233C1.86626 30.8293 1.45987 30.4563 1.13923 30.0279C0.817954 29.5996 0.595238 29.1101 0.479399 28.6015L0.455719 28.5063C0.44804 28.4742 0.444838 28.442 0.439718 28.4105L0.41284 28.2173L0.40068 28.1203L0.39108 28.0326L0.37764 27.8971L0.323242 27.3554C0.286122 26.9941 0.251562 26.6331 0.218281 26.2715C0.148524 25.5492 0.0877239 24.8261 0.0250044 24.1037C-0.0325937 23.3811 -0.0927539 22.6582 -0.143312 21.9359C-0.198353 21.2134 -0.243791 20.4904 -0.291791 19.7678L-0.35707 18.6842L-0.38907 18.1417L-0.404429 17.8707L-0.411469 17.7352V17.7183L-0.412109 17.6909V17.635L-0.410189 17.5228C-0.404429 16.9267 -0.269391 16.3213 -0.00827441 15.7563C0.251562 15.1906 0.642596 14.6707 1.12515 14.2227C1.60897 13.7751 2.1901 13.4 2.83777 13.1262C3.48481 12.8524 4.19647 12.6803 4.9171 12.621L5.18781 12.6046C5.2742 12.5997 5.38494 12.5948 5.42141 12.5943L5.74013 12.5856L6.37756 12.5709L7.65179 12.5426C8.50169 12.5241 9.35096 12.5126 10.2009 12.4968L12.75 12.4658L13.3874 12.4614C13.484 12.4604 13.6357 12.4614 13.6287 12.456C13.6427 12.4544 13.6562 12.4538 13.6703 12.4538C13.6844 12.4538 13.6984 12.4555 13.7112 12.4506C13.7368 12.4435 13.7644 12.4446 13.7906 12.4391C13.8156 12.4304 13.8405 12.425 13.8674 12.4217C13.8911 12.4103 13.9154 12.4021 13.941 12.3972C13.9647 12.3869 13.9864 12.3738 14.0127 12.3673C14.1074 12.3248 14.1951 12.266 14.268 12.1963C14.3416 12.1266 14.3966 12.0461 14.4369 11.9628C14.4414 11.9524 14.4472 11.9421 14.4536 11.9317C14.4619 11.9219 14.4593 11.9094 14.4638 11.8991C14.4677 11.8767 14.4862 11.8572 14.4843 11.8327C14.4856 11.8212 14.4881 11.8098 14.4914 11.7984C14.4945 11.7869 14.5003 11.776 14.4978 11.7635C14.4978 11.7515 14.4978 11.7396 14.4997 11.7276L14.503 11.7096L14.5049 11.7004L14.5061 11.6955V11.6786C14.5086 11.3171 14.5086 10.9556 14.5144 10.5941C14.5304 9.14817 14.5534 7.70221 14.5932 6.2568L14.6225 5.17234L14.6316 4.90122L14.6372 4.79614L14.6449 4.68238L14.6642 4.4548C14.7038 4.15211 14.7672 3.84995 14.8703 3.55706C15.0706 2.97074 15.3982 2.41815 15.8296 1.93908C16.2597 1.45945 16.7896 1.04951 17.3874 0.732665C17.9844 0.416362 18.652 0.193698 19.34 0.0853603C19.5113 0.0586841 19.6855 0.0418074 19.8577 0.0238418C19.9442 0.0134981 20.0304 0.0113204 20.1168 0.00859831L20.3761 0.00260979L20.5053 0.000976562H20.5374H20.5579L20.5975 0.00260979L20.757 0.0080539L21.0755 0.0205754C21.9254 0.0537844 22.7756 0.0869934 23.6252 0.126736C25.3253 0.202953 27.0256 0.290603 28.7254 0.393496C29.1503 0.417995 29.5754 0.444671 30.0003 0.472436L31.2751 0.556819L31.9126 0.600918L32.2313 0.623237L32.4137 0.637392L32.6358 0.658081C33.2246 0.720144 33.7988 0.87149 34.3112 1.10613C34.8239 1.34023 35.2795 1.64944 35.6476 2.0153C36.0169 2.38005 36.2998 2.79925 36.4814 3.24185C36.6645 3.68391 36.7458 4.14938 36.7259 4.60179L36.7176 4.7711C36.717 4.80159 36.7132 4.82119 36.7106 4.8446L36.7017 4.91266L36.6658 5.18378L36.5922 5.726C36.39 7.1725 36.1718 8.619 35.889 10.066L35.892 10.065Z" fill="#008080"/>
<path d="M28.2401 20.5894C28.0064 20.695 27.7717 20.7953 27.5417 20.9042C27.3094 21.0082 27.0809 21.1181 26.8538 21.2274C26.4001 21.448 25.954 21.6762 25.5214 21.9167C25.0868 22.1546 24.6662 22.4072 24.2575 22.6675C24.0526 22.7971 23.8542 22.9331 23.6559 23.067C23.4612 23.2058 23.2667 23.3425 23.0798 23.4863C22.7034 23.7698 22.3439 24.0655 22.0071 24.3747C21.673 24.6834 21.3594 24.9959 21.0824 25.3286L20.9768 25.4516C20.9422 25.493 20.9109 25.5358 20.8775 25.5784C20.813 25.6639 20.7452 25.7462 20.6817 25.8316L20.4994 26.0907C20.4681 26.1332 20.4399 26.1773 20.4124 26.2219L20.3292 26.3541L20.246 26.486C20.2191 26.5306 20.1952 26.5763 20.1697 26.6209C20.12 26.7114 20.0654 26.7989 20.0187 26.8904L19.8805 27.1648C19.8351 27.2562 19.7973 27.3511 19.755 27.4436C19.5957 27.8177 19.4537 28.196 19.3493 28.5879C19.243 28.9788 19.1503 29.3725 19.0895 29.7769L19.0646 29.9277L19.0447 30.0801L19.0051 30.3856C18.9833 30.5974 18.957 30.808 18.939 31.0193C18.9238 31.2305 18.9006 31.4406 18.8917 31.6519L18.8724 31.9677C18.8662 32.0727 18.8643 32.1782 18.8597 32.2834C18.8297 33.1256 18.8444 33.9671 18.8969 34.8236C18.9192 35.2504 18.9512 35.6832 18.9852 36.1176L19.0953 37.4363C19.1316 37.8788 19.1721 38.3264 19.204 38.776L19.3077 40.0767L19.3398 40.3919L19.3564 40.5371L19.3645 40.607L19.3743 40.6721C19.3993 40.8449 19.43 40.987 19.4659 41.0952C19.5015 41.2041 19.5393 41.2781 19.5783 41.3315C19.5901 41.3435 19.5976 41.3575 19.6077 41.369C19.6194 41.3794 19.6264 41.3924 19.6384 41.4028C19.6444 41.4076 19.6501 41.4131 19.6553 41.4185C19.6604 41.4241 19.6635 41.4295 19.6724 41.4366C19.6878 41.4495 19.7007 41.4644 19.7154 41.478C19.8351 41.5858 19.9899 41.6729 20.1556 41.7278C20.3221 41.7823 20.4949 41.8058 20.651 41.7943L22.1724 41.7534L23.7409 41.7175C25.8325 41.6691 27.9247 41.6342 30.016 41.6053L31.5847 41.5874L32.3692 41.5792L32.464 41.5781C32.4731 41.5764 32.4813 41.5754 32.4902 41.5743C32.5075 41.5721 32.5247 41.5709 32.5421 41.5717C32.56 41.5743 32.5753 41.5661 32.5921 41.5639C32.6087 41.5606 32.6247 41.559 32.6419 41.558C32.7698 41.5329 32.889 41.4828 32.9959 41.4131C33.1008 41.343 33.1962 41.2543 33.2505 41.1519C33.3082 41.0511 33.3426 40.9472 33.3478 40.8291C33.3492 40.8219 33.3504 40.8142 33.3517 40.8072V40.7272V40.5606V40.227L33.3492 39.5595L33.3587 36.8902L33.3857 34.221C33.3888 34.1005 33.3851 34.0342 33.3984 33.8083C33.4041 33.713 33.4112 33.6178 33.4188 33.523C33.4272 33.4283 33.4484 33.3331 33.4644 33.2383C33.4822 33.1436 33.4995 33.0488 33.5213 32.9551C33.5475 32.862 33.5756 32.7691 33.6043 32.6764C33.6576 32.4898 33.7376 32.31 33.8177 32.131C33.838 32.0862 33.8579 32.0416 33.8797 31.9976L33.9514 31.868C34 31.7814 34.05 31.6959 34.1005 31.6105C34.1248 31.5675 34.1536 31.5261 34.1824 31.4853L34.2693 31.3628C34.3284 31.2816 34.3865 31.2 34.45 31.1216C34.5157 31.0449 34.5829 30.9687 34.6515 30.8936C34.7199 30.8183 34.7872 30.7421 34.8639 30.6731C35.015 30.5331 35.1623 30.3905 35.3319 30.2668C35.9891 29.7551 36.7808 29.3692 37.6338 29.1475C37.8489 29.0997 38.0645 29.0496 38.2835 29.0169C38.393 29.0022 38.5031 28.9887 38.6132 28.976L38.7781 28.9581C38.8332 28.9531 38.8882 28.9522 38.9433 28.9494C39.0533 28.9444 39.1634 28.9412 39.2735 28.9386L39.356 28.9369H39.3971H39.4232L39.5213 28.9386L39.9134 28.9461C40.9599 28.9646 42.0056 28.9903 43.052 29.0148C44.0985 29.0398 45.1441 29.0703 46.1907 29.1002L46.9752 29.1252L47.3675 29.1379L47.5633 29.1438L47.6127 29.1454H47.6369L47.6465 29.1459H47.6856C47.8947 29.1563 48.1029 29.1334 48.3057 29.067L48.3254 29.0621L48.3434 29.0539L48.38 29.0381C48.4042 29.0278 48.4299 29.0191 48.4554 29.0099C48.478 28.9967 48.5015 28.9842 48.5251 28.9723C48.5489 28.9598 48.5765 28.9511 48.5963 28.9347C48.6379 28.9037 48.691 28.8818 48.7293 28.8459C48.7505 28.8297 48.7722 28.8144 48.7947 28.7986C48.8158 28.7823 48.8325 28.7626 48.8529 28.7452C49.0083 28.6026 49.1364 28.431 49.203 28.2358C49.2094 28.2106 49.2171 28.1861 49.2254 28.1617L49.2387 28.1247C49.2439 28.1121 49.2433 28.0991 49.2459 28.0859C49.2497 28.0598 49.2548 28.0343 49.2613 28.0081L49.2657 27.9885C49.2671 27.9802 49.2695 27.9793 49.2702 27.9623L49.2752 27.879L49.3156 27.2116L49.4013 25.8768C49.5197 24.0966 49.6534 22.3169 49.8079 20.5367C49.8853 19.6466 49.9665 18.7565 50.0543 17.8664L50.0709 17.6991L50.0746 17.6572C50.0759 17.6436 50.0779 17.6278 50.0779 17.6196L50.0817 17.5598L50.092 17.4384L50.0945 17.4079L50.0926 17.378L50.0893 17.317C50.0874 17.276 50.086 17.2354 50.0856 17.194L50.0663 17.0721C50.0586 17.0316 50.058 16.9888 50.0452 16.949L50.0113 16.8275L49.9952 16.7659C49.9889 16.7459 49.9792 16.7262 49.9716 16.7067L49.9236 16.5864C49.9102 16.5445 49.8847 16.5086 49.8648 16.4687L49.8033 16.3507L49.7271 16.2385C49.7001 16.2014 49.6798 16.1601 49.6472 16.1263L49.5576 16.0191C49.5423 16.0012 49.5282 15.982 49.5122 15.9652L49.4608 15.9157C49.1928 15.6434 48.8465 15.4148 48.4459 15.2564C48.3953 15.2373 48.3434 15.2221 48.2924 15.2046C48.2404 15.1884 48.1892 15.1671 48.1355 15.1545L47.9735 15.1165C47.9192 15.1034 47.8648 15.0876 47.8084 15.0822L47.6396 15.0572L47.5537 15.0446L47.4559 15.036L47.0635 14.9994C46.0171 14.8987 44.9707 14.7991 43.9237 14.675C44.9689 14.5426 46.0146 14.4349 47.0596 14.326L47.452 14.2868L47.55 14.277L47.6599 14.2716L47.8833 14.2618C47.9582 14.2563 48.0324 14.2612 48.1081 14.2639L48.3339 14.2748C48.4094 14.2791 48.4836 14.2922 48.5585 14.301C48.6333 14.3113 48.7094 14.32 48.7845 14.3331C49.3822 14.4424 49.9589 14.6743 50.4572 15.0064L50.5516 15.0685C50.5823 15.0898 50.6103 15.1138 50.6399 15.136L50.8151 15.2749C50.8761 15.3201 50.9246 15.3734 50.9796 15.4235L51.1395 15.5781L51.2829 15.7442C51.329 15.8008 51.3809 15.8546 51.4198 15.9157L51.5434 16.0954C51.5633 16.1258 51.5851 16.1552 51.6035 16.1862L51.6554 16.281L51.7578 16.4726C51.7931 16.5363 51.8149 16.6043 51.8437 16.6702C51.8705 16.7372 51.898 16.8036 51.9223 16.8716L51.9799 17.078L52.0075 17.182L52.0208 17.2342L52.0293 17.2871L52.0612 17.4989L52.076 17.6054L52.0861 17.6932L52.1048 17.8598C52.202 18.7494 52.2929 19.6384 52.3798 20.528C52.5533 22.3065 52.7062 24.0856 52.8445 25.8647L52.9451 27.1991L52.9929 27.8661L52.9988 27.9494C53 27.9598 53 27.9864 53 28.0066V28.0702C53 28.155 52.9994 28.24 52.9975 28.3255C52.9955 28.368 52.9975 28.4111 52.9918 28.4534L52.9771 28.5814C52.9662 28.6668 52.9552 28.7518 52.9424 28.8372C52.7018 30.2032 51.69 31.4663 50.2399 32.1614C49.5172 32.5098 48.691 32.7232 47.8559 32.7679L47.6991 32.7771L47.635 32.7803L47.5857 32.7826L47.3899 32.7903L46.9975 32.8055L46.2129 32.8366C45.1673 32.8746 44.1213 32.9133 43.0757 32.9464C42.03 32.9792 40.9843 33.0135 39.9385 33.0396L39.5462 33.0505L39.4481 33.0531H39.4259L39.4183 33.0554L39.4027 33.058C39.3824 33.062 39.3618 33.0641 39.3413 33.0658C39.3311 33.0667 39.321 33.0658 39.3106 33.0678C39.3011 33.0706 39.2915 33.0733 39.2818 33.0761C39.2625 33.0809 39.2435 33.0848 39.2237 33.0874C39.2185 33.0881 39.214 33.0885 39.2088 33.0897L39.1955 33.0952C39.1864 33.0985 39.1775 33.1016 39.168 33.1049C39.1493 33.1109 39.1308 33.1152 39.1122 33.1184C38.9697 33.1702 38.8403 33.2481 38.7354 33.345C38.704 33.365 38.6879 33.3972 38.6617 33.4206C38.647 33.4316 38.64 33.4478 38.6302 33.4615C38.6207 33.4757 38.6099 33.4887 38.5985 33.5013C38.5894 33.5154 38.5842 33.5312 38.5746 33.5448C38.5701 33.5519 38.5655 33.5585 38.5606 33.5655C38.5554 33.572 38.5498 33.5784 38.5485 33.5867C38.5433 33.6019 38.5367 33.6166 38.5292 33.6307C38.5253 33.638 38.5215 33.645 38.517 33.6514C38.5145 33.6592 38.5139 33.6667 38.5112 33.6744C38.5037 33.7048 38.4857 33.7321 38.4857 33.7636C38.4832 33.7789 38.4786 33.7935 38.473 33.8083C38.4724 33.8241 38.473 33.8399 38.471 33.8552C38.471 33.8709 38.4633 33.8851 38.4652 33.9013C38.4672 33.9177 38.4684 33.9335 38.4678 33.9492C38.4639 33.9455 38.4684 34.1013 38.471 34.2036L38.5273 36.8728L38.5664 39.5421L38.5721 40.2093L38.5746 40.5432L38.5759 40.7098V40.7969L38.5715 40.9418C38.5508 41.7131 38.3231 42.4917 37.9058 43.1836C37.4924 43.8782 36.8864 44.4809 36.1612 44.949C35.4362 45.4168 34.5837 45.7521 33.6858 45.9029C33.573 45.9193 33.4604 45.9351 33.3478 45.9492C33.2351 45.9621 33.122 45.9798 33.0093 45.9828C32.8959 45.9895 32.7826 45.9943 32.6695 45.9982L32.4998 46.0035H32.398L31.6135 46.0019L30.0443 45.996C27.9521 45.9835 25.8599 45.9655 23.7679 45.9334L22.1985 45.9099L20.582 45.8779C20.1371 45.8664 19.6969 45.812 19.2732 45.7167C18.8488 45.6215 18.4411 45.4843 18.0564 45.3128C17.2879 44.9697 16.6089 44.4841 16.0853 43.8897C16.0206 43.8151 15.9586 43.7384 15.8972 43.6621C15.8358 43.586 15.7763 43.4982 15.718 43.416C15.6597 43.3321 15.6092 43.2451 15.5567 43.1584C15.5061 43.0719 15.4619 42.9831 15.4165 42.8956C15.2425 42.5418 15.133 42.1862 15.0652 41.8596C14.9974 41.5318 14.9686 41.2308 14.9545 40.9602L14.9493 40.859L14.9462 40.7621C14.9435 40.6962 14.9424 40.6357 14.9416 40.5743L14.9404 40.2225L14.9648 38.855L14.9986 37.5261C15.0185 36.6344 15.0498 35.7252 15.1119 34.8008C15.144 34.3396 15.1894 33.8736 15.2419 33.4081C15.2726 33.1745 15.2981 32.9421 15.3366 32.7086L15.391 32.359C15.4095 32.2425 15.4319 32.1265 15.4524 32.0101C15.533 31.5451 15.6361 31.0829 15.7481 30.6246C15.8037 30.3952 15.8677 30.1678 15.9273 29.9397C15.9592 29.8242 15.9957 29.7056 16.0303 29.5891L16.0834 29.4139L16.1423 29.2386C16.2947 28.7719 16.4803 28.3071 16.6958 27.8508C16.9084 27.3946 17.1618 26.9471 17.4459 26.5159C17.7283 26.0836 18.0508 25.6692 18.4052 25.2796L18.5385 25.1337C18.5819 25.0845 18.6273 25.0367 18.6754 24.9905L18.957 24.7112C19.0531 24.6203 19.1528 24.5321 19.2515 24.4433C19.3012 24.3991 19.3493 24.354 19.4004 24.3116L19.5553 24.1852C19.6596 24.102 19.7589 24.0149 19.867 23.9364L20.1877 23.6985C20.2939 23.6197 20.4086 23.5484 20.5179 23.4731C20.6281 23.3985 20.7387 23.3246 20.852 23.2571C21.2974 22.9745 21.7626 22.7213 22.235 22.4855C22.708 22.2505 23.1906 22.0355 23.6827 21.8437C24.1741 21.6505 24.6708 21.474 25.1752 21.3206C26.1831 21.0112 27.2078 20.7674 28.2439 20.5931L28.2401 20.5894Z" fill="#008080"/>
<path d="M14.6831 26.2009C14.6223 26.0555 14.5634 25.9091 14.5097 25.761C14.4553 25.6129 14.4079 25.4633 14.3586 25.3129C14.3349 25.2379 14.3132 25.1621 14.2921 25.0859C14.2703 25.0103 14.2498 24.9341 14.2313 24.8572L14.1743 24.6271L14.1244 24.395C13.997 23.7744 13.942 23.1346 13.9605 22.4826C13.9778 22.157 14.0028 21.8271 14.0661 21.4977C14.0917 21.3321 14.1321 21.1671 14.1717 21.0018C14.1897 20.9185 14.2178 20.8373 14.2415 20.7546C14.2671 20.6724 14.2895 20.589 14.3183 20.5069C14.5449 19.8502 14.8846 19.2009 15.3429 18.6003L15.5235 18.3799C15.5841 18.3063 15.6438 18.2317 15.7116 18.1625C15.8441 18.0228 15.9727 17.8779 16.1179 17.7473L16.3337 17.5474C16.4072 17.4821 16.4847 17.4216 16.5608 17.3581C16.6377 17.296 16.7138 17.2317 16.7925 17.1712L17.0344 16.9959C17.6866 16.5331 18.4066 16.1494 19.1541 15.8424C19.2476 15.8036 19.3411 15.7629 19.4351 15.727L19.7185 15.623L20.004 15.5211C20.0988 15.4885 20.1922 15.4618 20.2861 15.4318C20.4744 15.3747 20.6625 15.3121 20.8533 15.261L21.1386 15.1808C21.2334 15.1536 21.3333 15.1324 21.43 15.1079L21.7238 15.0377L22.0156 14.9756C22.2113 14.9327 22.4034 14.8978 22.5973 14.8613C22.9838 14.7906 23.3652 14.735 23.7435 14.6816C25.2512 14.4781 26.6811 14.3811 27.9724 14.2184C28.1319 14.1971 28.2926 14.1764 28.4475 14.153L28.8961 14.0774C28.9709 14.0643 29.0458 14.0561 29.12 14.0398L29.3428 13.9946C29.4906 13.963 29.6398 13.938 29.7863 13.9026C30.0793 13.8296 30.3738 13.7643 30.6637 13.6788L30.8819 13.619L30.9907 13.5885L31.0988 13.5542L31.5302 13.4175C33.8227 12.6564 35.9802 11.4718 38.0114 10.0596L38.0428 10.0378C39.1518 9.26695 40.7859 9.40687 41.6927 10.3503C42.0185 10.6895 42.2052 11.0837 42.2603 11.4887L42.2802 11.6319L42.2962 11.7565L42.3236 11.9977C42.341 12.1567 42.3563 12.314 42.3704 12.4708C42.3987 12.7839 42.4177 13.0947 42.4318 13.4055C42.4592 14.0268 42.4696 14.6474 42.4503 15.2691C42.4337 15.8908 42.3968 16.5131 42.3294 17.1369C42.2974 17.4489 42.2585 17.7608 42.2131 18.0734C42.1668 18.3853 42.1106 18.6983 42.0517 19.0107C41.8084 20.2608 41.4391 21.5152 40.8832 22.7487C40.5964 23.3634 40.2745 23.9753 39.8732 24.5665C39.4802 25.1593 39.0143 25.7338 38.4755 26.2689C38.2074 26.5374 37.9136 26.7915 37.6075 27.0349C37.4489 27.1536 37.2958 27.2745 37.1295 27.3855C37.047 27.4415 36.9671 27.4993 36.8818 27.5527L36.6258 27.7116L36.5612 27.7514L36.4907 27.7916L36.35 27.8721C36.2566 27.925 36.1587 27.9823 36.076 28.0175L35.5603 28.2583C35.3875 28.3416 35.2185 28.4057 35.0489 28.4754C34.8793 28.5435 34.7111 28.6148 34.5408 28.6797C33.1719 29.1928 31.7543 29.5648 30.3201 29.7977C28.8844 30.0253 27.4297 30.1081 26.0007 30.045C24.5721 29.978 23.1655 29.7673 21.847 29.377C23.2384 29.2834 24.58 29.1048 25.8713 28.8271C27.1624 28.5522 28.4031 28.187 29.5808 27.7387C30.7564 27.2859 31.8707 26.7534 32.898 26.1512C33.0266 26.0762 33.1499 25.9957 33.276 25.9188C33.4002 25.841 33.5309 25.7642 33.641 25.6847L33.9858 25.4523C34.0499 25.4125 34.085 25.3783 34.1273 25.3428L34.1893 25.2906L34.2208 25.2649L34.2546 25.2345C34.439 25.0751 34.6124 24.9056 34.7782 24.7303C34.9394 24.5502 35.0937 24.3645 35.2382 24.1701C35.811 23.3885 36.2374 22.4803 36.5426 21.5097C36.8511 20.5379 37.0451 19.5068 37.1647 18.455C37.1935 18.1914 37.2197 17.9274 37.2377 17.6606C37.2582 17.3945 37.2761 17.1277 37.2863 16.86C37.2984 16.592 37.3036 16.3231 37.3074 16.0536C37.3119 15.7841 37.3125 15.5146 37.3074 15.2441C37.2958 14.7035 37.2774 14.1617 37.2383 13.6229C37.2184 13.3532 37.1948 13.0844 37.1703 12.8181C37.1576 12.6853 37.1436 12.553 37.1282 12.4229L37.1046 12.2307L37.0815 12.0652L41.3305 13.4938C40.147 14.3186 38.8883 15.0927 37.5251 15.7629C37.1896 15.936 36.8358 16.0885 36.4883 16.2479C36.3122 16.3252 36.1324 16.3982 35.9551 16.4733L35.6876 16.5849L35.4149 16.69L34.8664 16.8941L34.3073 17.0826C34.2138 17.113 34.1217 17.1467 34.0269 17.1746L33.742 17.2599C33.5514 17.3155 33.3638 17.3754 33.1698 17.4249L32.5894 17.572L32.4441 17.6084L32.297 17.6406L32.0026 17.7037C31.8053 17.7439 31.6115 17.7919 31.4113 17.8229L30.8141 17.9237C30.6152 17.9563 30.4122 17.978 30.2119 18.0054L29.9104 18.044C29.8104 18.0575 29.7082 18.0635 29.607 18.0739L29.0004 18.124C28.8026 18.1365 28.6093 18.1458 28.4154 18.1555C26.8768 18.2188 25.4619 18.1724 24.1389 18.1969C23.9759 18.2013 23.8102 18.2034 23.6487 18.2093C23.4894 18.2166 23.3243 18.2204 23.168 18.23C23.01 18.2383 22.8507 18.2453 22.6971 18.259L22.4642 18.2764L22.2362 18.2999C22.0846 18.3133 21.9303 18.3347 21.7761 18.3542C21.6206 18.3722 21.4696 18.4 21.3147 18.4223C21.2386 18.4347 21.1592 18.4447 21.0849 18.4587L20.8655 18.5018L20.6446 18.5432C20.5717 18.5578 20.5011 18.5769 20.4296 18.5933C19.2783 18.8594 18.2345 19.3032 17.3691 19.9875L17.2117 20.1204C17.1599 20.1655 17.1035 20.2079 17.0562 20.2563C16.9583 20.3516 16.854 20.4448 16.7624 20.5476L16.6197 20.6996L16.4866 20.8597L16.4194 20.9403C16.3976 20.9674 16.3777 20.9958 16.3567 21.0236L16.23 21.1916C15.9042 21.6486 15.6373 22.157 15.419 22.696C14.9916 23.7781 14.7803 24.9732 14.6831 26.203V26.2009Z" fill="#008080"/>
</g>
</g>
<defs>
<clipPath id="clip0_0_8145">
<rect width="53" height="46" fill="white"/>
</clipPath>
</defs>
</svg>
