<svg xmlns="http://www.w3.org/2000/svg" width="44" height="43" viewBox="0 0 44 43" fill="none">
  <path d="M24.6211 17.6797C23.6285 17.6797 22.8594 18.4313 22.8594 19.3594C22.8594 20.2874 23.6285 21.0391 24.6211 21.0391C25.5277 21.0391 26.2969 20.2874 26.2969 19.3594C26.2969 18.4313 25.5277 17.6797 24.6211 17.6797ZM12.5898 17.6797C11.5973 17.6797 10.8281 18.4313 10.8281 19.3594C10.8281 20.2874 11.5973 21.0391 12.5898 21.0391C13.4965 21.0391 14.2656 20.2874 14.2656 19.3594C14.2656 18.4313 13.4965 17.6797 12.5898 17.6797Z" fill="#7B7B7B"/>
  <path d="M38.4145 14.4863C36.3477 11.7148 33.4602 9.86291 30.2934 9.02727V9.03147C29.5586 8.23362 28.7293 7.49875 27.8012 6.84368C20.7672 1.8466 10.893 3.37092 5.75822 10.245C1.62032 15.83 1.7965 23.3424 6.01603 28.6796L6.0504 34.2478C6.0504 34.3822 6.07189 34.5165 6.11486 34.6425C6.34259 35.3522 7.11603 35.7427 7.8379 35.5201L13.2777 33.8447C14.7172 34.3444 16.2039 34.6299 17.682 34.7097L17.6606 34.7265C21.4891 37.4518 26.5078 38.2706 31.1098 36.7841L36.5711 38.5226C36.7086 38.5646 36.8504 38.5898 36.9965 38.5898C37.757 38.5898 38.3715 37.9893 38.3715 37.246V31.6191C42.157 26.5968 42.2559 19.6555 38.4145 14.4863ZM13.8793 30.8632L13.3637 30.6532L9.10978 31.955L9.06681 27.5878L8.72306 27.2099C5.0879 22.8763 4.84728 16.6321 8.2504 12.0507C12.3926 6.49934 20.3332 5.27317 25.9965 9.27922C31.677 13.3147 32.9359 21.0622 28.8324 26.58C25.3906 31.1949 19.2289 32.8998 13.8793 30.8632ZM35.5785 30.1493L35.2348 30.5693L35.2777 34.9365L31.0668 33.5507L30.5512 33.7607C28.1449 34.6341 25.5797 34.7055 23.2035 34.0546L23.1949 34.0504C26.3703 33.0972 29.2492 31.1656 31.3246 28.3857C34.6074 23.9639 35.1402 18.4083 33.2324 13.6716L33.2582 13.6884C34.2465 14.3813 35.1531 15.2463 35.9223 16.2919C39.0418 20.4743 38.8656 26.1685 35.5785 30.1493Z" fill="#7B7B7B"/>
  <path d="M18.6055 17.6797C17.6129 17.6797 16.8438 18.4313 16.8438 19.3594C16.8438 20.2874 17.6129 21.0391 18.6055 21.0391C19.5121 21.0391 20.2812 20.2874 20.2812 19.3594C20.2812 18.4313 19.5121 17.6797 18.6055 17.6797Z" fill="#7B7B7B"/>
</svg>